<svg width="90" height="80" viewBox="0 0 90 80" fill="none" xmlns="http://www.w3.org/2000/svg">
<g filter="url(#filter0_d_226_519)">
<path d="M45 69.9033C61.5685 69.9033 75 56.4719 75 39.9033C75 23.3348 61.5685 9.90332 45 9.90332C28.4315 9.90332 15 23.3348 15 39.9033C15 56.4719 28.4315 69.9033 45 69.9033Z" fill="url(#paint0_linear_226_519)"/>
</g>
<g filter="url(#filter1_f_226_519)">
<path d="M40.7284 33.7655C49.5849 29.0614 54.5949 21.1631 51.9184 16.1241C49.242 11.0851 39.8927 10.8136 31.0361 15.5177C22.1796 20.2217 17.1697 28.1201 19.8461 33.1591C22.5226 38.1981 31.8719 38.4696 40.7284 33.7655Z" fill="#EFDA6A" fill-opacity="0.8"/>
</g>
<defs>
<filter id="filter0_d_226_519" x="5.32258" y="0.225901" width="79.3548" height="79.3548" filterUnits="userSpaceOnUse" color-interpolation-filters="sRGB">
<feFlood flood-opacity="0" result="BackgroundImageFix"/>
<feColorMatrix in="SourceAlpha" type="matrix" values="0 0 0 0 0 0 0 0 0 0 0 0 0 0 0 0 0 0 127 0" result="hardAlpha"/>
<feOffset/>
<feGaussianBlur stdDeviation="4.83871"/>
<feColorMatrix type="matrix" values="0 0 0 0 1 0 0 0 0 0.835667 0 0 0 0 0.516667 0 0 0 0.82 0"/>
<feBlend mode="normal" in2="BackgroundImageFix" result="effect1_dropShadow_226_519"/>
<feBlend mode="normal" in="SourceGraphic" in2="effect1_dropShadow_226_519" result="shape"/>
</filter>
<filter id="filter1_f_226_519" x="12.6751" y="5.70924" width="46.4145" height="37.8647" filterUnits="userSpaceOnUse" color-interpolation-filters="sRGB">
<feFlood flood-opacity="0" result="BackgroundImageFix"/>
<feBlend mode="normal" in="SourceGraphic" in2="BackgroundImageFix" result="shape"/>
<feGaussianBlur stdDeviation="3.22521" result="effect1_foregroundBlur_226_519"/>
</filter>
<linearGradient id="paint0_linear_226_519" x1="49.901" y1="60.4654" x2="32.5248" y2="-8.23757" gradientUnits="userSpaceOnUse">
<stop stop-color="#FF9900"/>
<stop offset="0.904167" stop-color="#FFEE94"/>
</linearGradient>
</defs>
</svg>
