<svg width="90" height="80" viewBox="0 0 90 80" fill="none" xmlns="http://www.w3.org/2000/svg">
<g filter="url(#filter0_d_213_2187)">
<path fill-rule="evenodd" clip-rule="evenodd" d="M74.7911 44.3575C74.9281 43.4248 74.999 42.4707 74.999 41.5C74.999 30.7305 66.2686 22 55.499 22C47.7116 22 40.9904 26.5649 37.8652 33.1647C35.4509 31.1868 32.3636 30 28.9991 30C21.2671 30 14.9991 36.268 14.9991 44C14.9991 44.3956 15.0155 44.7874 15.0477 45.1747C11.4596 46.9864 8.99902 50.7059 8.99902 55C8.99902 61.0751 13.9239 66 19.999 66H71.999C78.0742 66 82.999 61.0751 82.999 55C82.999 49.8896 79.5141 45.5932 74.7911 44.3575Z" fill="url(#paint0_linear_213_2187)"/>
</g>
<g opacity="0.7">
<g filter="url(#filter1_d_213_2187)">
<path fill-rule="evenodd" clip-rule="evenodd" d="M62.1221 33.732C62.2369 32.9505 62.2963 32.1511 62.2963 31.3378C62.2963 22.3147 54.9816 15 45.9585 15C39.4339 15 33.8026 18.8246 31.1842 24.3542C29.1614 22.6971 26.5748 21.7027 23.7559 21.7027C17.2777 21.7027 12.0261 26.9543 12.0261 33.4324C12.0261 33.7639 12.0399 34.0921 12.0668 34.4166C9.06058 35.9346 6.99902 39.0509 6.99902 42.6487C6.99902 47.7386 11.1253 51.8649 16.2152 51.8649H59.7828C64.8728 51.8649 68.999 47.7386 68.999 42.6487C68.999 38.367 66.0792 34.7673 62.1221 33.732Z" fill="url(#paint1_linear_213_2187)"/>
</g>
</g>
<defs>
<filter id="filter0_d_213_2187" x="6.88474" y="18.8286" width="82.4571" height="52.4572" filterUnits="userSpaceOnUse" color-interpolation-filters="sRGB">
<feFlood flood-opacity="0" result="BackgroundImageFix"/>
<feColorMatrix in="SourceAlpha" type="matrix" values="0 0 0 0 0 0 0 0 0 0 0 0 0 0 0 0 0 0 127 0" result="hardAlpha"/>
<feOffset dx="2.11429" dy="1.05714"/>
<feGaussianBlur stdDeviation="2.11429"/>
<feColorMatrix type="matrix" values="0 0 0 0 0.689883 0 0 0 0 0.785691 0 0 0 0 0.971667 0 0 0 0.7 0"/>
<feBlend mode="normal" in2="BackgroundImageFix" result="effect1_dropShadow_213_2187"/>
<feBlend mode="normal" in="SourceGraphic" in2="effect1_dropShadow_213_2187" result="shape"/>
</filter>
<filter id="filter1_d_213_2187" x="5.22759" y="12.3429" width="69.0857" height="43.9506" filterUnits="userSpaceOnUse" color-interpolation-filters="sRGB">
<feFlood flood-opacity="0" result="BackgroundImageFix"/>
<feColorMatrix in="SourceAlpha" type="matrix" values="0 0 0 0 0 0 0 0 0 0 0 0 0 0 0 0 0 0 127 0" result="hardAlpha"/>
<feOffset dx="1.77143" dy="0.885714"/>
<feGaussianBlur stdDeviation="1.77143"/>
<feColorMatrix type="matrix" values="0 0 0 0 0.689883 0 0 0 0 0.785691 0 0 0 0 0.971667 0 0 0 0.7 0"/>
<feBlend mode="normal" in2="BackgroundImageFix" result="effect1_dropShadow_213_2187"/>
<feBlend mode="normal" in="SourceGraphic" in2="effect1_dropShadow_213_2187" result="shape"/>
</filter>
<linearGradient id="paint0_linear_213_2187" x1="38.969" y1="27.544" x2="52.5811" y2="68.7619" gradientUnits="userSpaceOnUse">
<stop stop-color="white" stop-opacity="0.95"/>
<stop offset="1" stop-color="#B1D5FF" stop-opacity="0.5"/>
</linearGradient>
<linearGradient id="paint1_linear_213_2187" x1="32.109" y1="19.645" x2="43.5138" y2="54.1789" gradientUnits="userSpaceOnUse">
<stop stop-color="white" stop-opacity="0.95"/>
<stop offset="1" stop-color="#B1D5FF" stop-opacity="0.5"/>
</linearGradient>
</defs>
</svg>
