<svg width="90" height="80" viewBox="0 0 90 80" fill="none" xmlns="http://www.w3.org/2000/svg">
<g filter="url(#filter0_d_213_2165)">
<path d="M31.8101 51.6083C31.973 51.7561 29.3758 58.1453 27.7121 60.0591C26.0484 61.9729 23.872 62.8036 22.8503 61.9154C21.8285 61.0272 22.348 58.7565 24.0119 56.8425C25.6757 54.9285 31.6472 51.4605 31.8101 51.6083Z" fill="#309EFC"/>
<path d="M24.3086 58.1284C24.4757 58.3959 25.0543 58.3358 25.6009 57.9943C26.1475 57.6527 26.4551 57.159 26.288 56.8915C26.1208 56.624 25.5422 56.6841 24.9956 57.0256C24.449 57.3672 24.1414 57.8609 24.3086 58.1284Z" fill="white"/>
<path d="M49.398 51.6083C49.5609 51.7561 46.9637 58.1453 45.3 60.0591C43.6363 61.9729 41.4599 62.8036 40.4382 61.9154C39.4164 61.0272 39.9359 58.7565 41.5997 56.8425C43.2636 54.9285 49.2351 51.4605 49.398 51.6083Z" fill="#309EFC"/>
<path d="M41.8979 58.1284C42.0651 58.3959 42.6437 58.3358 43.1903 57.9943C43.7369 57.6527 44.0445 57.159 43.8774 56.8915C43.7102 56.624 43.1316 56.6841 42.585 57.0256C42.0384 57.3672 41.7308 57.8609 41.8979 58.1284Z" fill="white"/>
<path d="M66.9873 51.6084C67.1502 51.7561 64.553 58.1453 62.8894 60.0592C61.2257 61.973 59.0492 62.8036 58.0275 61.9155C57.0058 61.0273 57.5253 58.7566 59.1891 56.8426C60.8529 54.9285 66.8244 51.4606 66.9873 51.6084Z" fill="#309EFC"/>
<path d="M59.4858 58.1283C59.6529 58.3958 60.2316 58.3358 60.7782 57.9942C61.3248 57.6527 61.6324 57.1589 61.4652 56.8914C61.2981 56.6239 60.7195 56.684 60.1729 57.0256C59.6263 57.3671 59.3187 57.8608 59.4858 58.1283Z" fill="white"/>
<path d="M53.7256 62.0846C53.8885 62.2324 51.2913 68.6216 49.6276 70.5354C47.964 72.4493 45.7875 73.2799 44.7658 72.3917C43.7441 71.5035 44.2635 69.2329 45.9274 67.3188C47.5912 65.4048 53.5627 61.9368 53.7256 62.0846Z" fill="#309EFC"/>
<path d="M46.2872 68.6602C46.4724 68.9434 47.0749 68.9041 47.6328 68.5723C48.1907 68.2406 48.4928 67.7421 48.3076 67.4589C48.1223 67.1757 47.5199 67.215 46.962 67.5467C46.4041 67.8785 46.102 68.377 46.2872 68.6602Z" fill="white"/>
<path d="M34.2085 62.0845C34.3714 62.2323 31.7742 68.6215 30.1106 70.5353C28.4469 72.4492 26.2704 73.2798 25.2487 72.3916C24.227 71.5035 24.7464 69.2328 26.4103 67.3187C28.0741 65.4047 34.0456 61.9367 34.2085 62.0845Z" fill="#309EFC"/>
<path d="M26.706 68.6046C26.8732 68.8721 27.4518 68.812 27.9984 68.4705C28.545 68.1289 28.8526 67.6352 28.6855 67.3677C28.5183 67.1002 27.9397 67.1602 27.3931 67.5018C26.8465 67.8434 26.5389 68.3371 26.706 68.6046Z" fill="white"/>
</g>
<g filter="url(#filter1_d_213_2165)">
<path fill-rule="evenodd" clip-rule="evenodd" d="M73.7911 37.3575C73.9281 36.4248 73.999 35.4707 73.999 34.5C73.999 23.7305 65.2686 15 54.499 15C46.7116 15 39.9904 19.5648 36.8652 26.1647C34.4509 24.1868 31.3636 23 27.9991 23C20.2671 23 13.9991 29.268 13.9991 37C13.9991 37.3956 14.0155 37.7874 14.0477 38.1747C10.4596 39.9864 7.99902 43.7059 7.99902 48C7.99902 54.0751 12.9239 59 18.999 59H70.999C77.0742 59 81.999 54.0751 81.999 48C81.999 42.8896 78.5141 38.5932 73.7911 37.3575Z" fill="url(#paint0_linear_213_2165)"/>
</g>
<defs>
<filter id="filter0_d_213_2165" x="21.6507" y="49.1189" width="50.5421" height="27.0182" filterUnits="userSpaceOnUse" color-interpolation-filters="sRGB">
<feFlood flood-opacity="0" result="BackgroundImageFix"/>
<feColorMatrix in="SourceAlpha" type="matrix" values="0 0 0 0 0 0 0 0 0 0 0 0 0 0 0 0 0 0 127 0" result="hardAlpha"/>
<feOffset dx="2.26111" dy="0.452222"/>
<feGaussianBlur stdDeviation="1.46853"/>
<feColorMatrix type="matrix" values="0 0 0 0 0.175755 0 0 0 0 0.328783 0 0 0 0 0.625833 0 0 0 0.5 0"/>
<feBlend mode="normal" in2="BackgroundImageFix" result="effect1_dropShadow_213_2165"/>
<feBlend mode="normal" in="SourceGraphic" in2="effect1_dropShadow_213_2165" result="shape"/>
</filter>
<filter id="filter1_d_213_2165" x="5.88474" y="11.8286" width="82.4571" height="52.4572" filterUnits="userSpaceOnUse" color-interpolation-filters="sRGB">
<feFlood flood-opacity="0" result="BackgroundImageFix"/>
<feColorMatrix in="SourceAlpha" type="matrix" values="0 0 0 0 0 0 0 0 0 0 0 0 0 0 0 0 0 0 127 0" result="hardAlpha"/>
<feOffset dx="2.11429" dy="1.05714"/>
<feGaussianBlur stdDeviation="2.11429"/>
<feColorMatrix type="matrix" values="0 0 0 0 0.689883 0 0 0 0 0.785691 0 0 0 0 0.971667 0 0 0 0.7 0"/>
<feBlend mode="normal" in2="BackgroundImageFix" result="effect1_dropShadow_213_2165"/>
<feBlend mode="normal" in="SourceGraphic" in2="effect1_dropShadow_213_2165" result="shape"/>
</filter>
<linearGradient id="paint0_linear_213_2165" x1="37.969" y1="20.544" x2="51.5811" y2="61.7619" gradientUnits="userSpaceOnUse">
<stop stop-color="white" stop-opacity="0.95"/>
<stop offset="1" stop-color="#B1D5FF" stop-opacity="0.5"/>
</linearGradient>
</defs>
</svg>
