<svg width="90" height="80" viewBox="0 0 90 80" fill="none" xmlns="http://www.w3.org/2000/svg">
<g filter="url(#filter0_d_213_2226)">
<path d="M45.1636 15.8251V66.2166" stroke="#D9EEFF" stroke-width="2.6382" stroke-linecap="round"/>
<path d="M45.0635 28.1431L53.7419 19.1846" stroke="#D9EEFF" stroke-width="2.6382" stroke-linecap="round"/>
<path d="M45.0635 28.1432L36.105 19.1847" stroke="#D9EEFF" stroke-width="2.6382" stroke-linecap="round"/>
<path d="M45.0635 55.0187L53.7419 63.9773" stroke="#D9EEFF" stroke-width="2.6382" stroke-linecap="round"/>
<path d="M45.0635 55.0187L36.105 63.9773" stroke="#D9EEFF" stroke-width="2.6382" stroke-linecap="round"/>
<path d="M66.8633 28.6315L23.2232 53.8272" stroke="#D9EEFF" stroke-width="2.6382" stroke-linecap="round"/>
<path d="M56.146 34.7036L68.2435 37.7401" stroke="#D9EEFF" stroke-width="2.6382" stroke-linecap="round"/>
<path d="M56.1453 34.7035L59.4243 22.4659" stroke="#D9EEFF" stroke-width="2.6382" stroke-linecap="round"/>
<path d="M32.8711 48.1411L29.452 60.1361" stroke="#D9EEFF" stroke-width="2.6382" stroke-linecap="round"/>
<path d="M32.8704 48.141L20.6328 44.8619" stroke="#D9EEFF" stroke-width="2.6382" stroke-linecap="round"/>
<path d="M66.6226 53.8272L22.9825 28.6315" stroke="#D9EEFF" stroke-width="2.6382" stroke-linecap="round"/>
<path d="M56.0044 47.581L59.4235 59.5761" stroke="#D9EEFF" stroke-width="2.6382" stroke-linecap="round"/>
<path d="M56.0046 47.5811L68.2422 44.302" stroke="#D9EEFF" stroke-width="2.6382" stroke-linecap="round"/>
<path d="M32.73 34.1435L20.6325 37.18" stroke="#D9EEFF" stroke-width="2.6382" stroke-linecap="round"/>
<path d="M32.7302 34.1433L29.4512 21.9057" stroke="#D9EEFF" stroke-width="2.6382" stroke-linecap="round"/>
</g>
<path d="M26.7661 6.99994V10.4218" stroke="#ABD9FF" stroke-width="0.255478" stroke-linecap="round"/>
<path d="M26.6919 7.83467L27.2486 7.55646" stroke="#ABD9FF" stroke-width="0.255478" stroke-linecap="round"/>
<path d="M26.6918 7.83467L25.8569 7.55646" stroke="#ABD9FF" stroke-width="0.255478" stroke-linecap="round"/>
<path d="M26.6919 9.78326L27.2486 10.0615" stroke="#ABD9FF" stroke-width="0.255478" stroke-linecap="round"/>
<path d="M26.6918 9.78326L25.8569 10.0615" stroke="#ABD9FF" stroke-width="0.255478" stroke-linecap="round"/>
<path d="M28.2383 7.86963L25.2749 9.58057" stroke="#ABD9FF" stroke-width="0.255478" stroke-linecap="round"/>
<path d="M27.5108 8.28187L28.3323 8.48815" stroke="#ABD9FF" stroke-width="0.255478" stroke-linecap="round"/>
<path d="M27.5107 8.28193L27.7334 7.45099" stroke="#ABD9FF" stroke-width="0.255478" stroke-linecap="round"/>
<path d="M25.9307 9.19464L25.6986 10.0092" stroke="#ABD9FF" stroke-width="0.255478" stroke-linecap="round"/>
<path d="M25.9306 9.19471L25.0997 8.97205" stroke="#ABD9FF" stroke-width="0.255478" stroke-linecap="round"/>
<path d="M28.2217 9.58075L25.2583 7.86981" stroke="#ABD9FF" stroke-width="0.255478" stroke-linecap="round"/>
<path d="M27.502 9.15661L27.7341 9.97118" stroke="#ABD9FF" stroke-width="0.255478" stroke-linecap="round"/>
<path d="M27.5016 9.15667L28.3325 8.93402" stroke="#ABD9FF" stroke-width="0.255478" stroke-linecap="round"/>
<path d="M25.9209 8.24402L25.0994 8.4503" stroke="#ABD9FF" stroke-width="0.255478" stroke-linecap="round"/>
<path d="M25.921 8.24408L25.6983 7.41314" stroke="#ABD9FF" stroke-width="0.255478" stroke-linecap="round"/>
<path d="M73.9741 13.5276V19.3934" stroke="#ABD9FF" stroke-width="0.255478" stroke-linecap="round"/>
<path d="M73.7295 14.8581L74.8429 14.5798" stroke="#ABD9FF" stroke-width="0.255478" stroke-linecap="round"/>
<path d="M73.73 14.8581L72.3384 14.5798" stroke="#ABD9FF" stroke-width="0.255478" stroke-linecap="round"/>
<path d="M73.7295 18.1984L74.8429 18.7551" stroke="#ABD9FF" stroke-width="0.255478" stroke-linecap="round"/>
<path d="M73.73 18.1983L72.3384 18.755" stroke="#ABD9FF" stroke-width="0.255478" stroke-linecap="round"/>
<path d="M76.501 15.0181L71.4211 17.951" stroke="#ABD9FF" stroke-width="0.255478" stroke-linecap="round"/>
<path d="M75.2536 15.725L76.6618 16.0784" stroke="#ABD9FF" stroke-width="0.255478" stroke-linecap="round"/>
<path d="M75.2535 15.7249L75.6353 14.3004" stroke="#ABD9FF" stroke-width="0.255478" stroke-linecap="round"/>
<path d="M72.5439 17.289L72.1459 18.6853" stroke="#ABD9FF" stroke-width="0.255478" stroke-linecap="round"/>
<path d="M72.5444 17.2889L71.1198 16.9072" stroke="#ABD9FF" stroke-width="0.255478" stroke-linecap="round"/>
<path d="M76.4722 17.9514L71.3923 15.0185" stroke="#ABD9FF" stroke-width="0.255478" stroke-linecap="round"/>
<path d="M75.2355 17.2239L75.6336 18.6202" stroke="#ABD9FF" stroke-width="0.255478" stroke-linecap="round"/>
<path d="M75.2361 17.2241L76.6606 16.8424" stroke="#ABD9FF" stroke-width="0.255478" stroke-linecap="round"/>
<path d="M72.5273 15.66L71.1191 16.0134" stroke="#ABD9FF" stroke-width="0.255478" stroke-linecap="round"/>
<path d="M72.5274 15.6602L72.1457 14.2356" stroke="#ABD9FF" stroke-width="0.255478" stroke-linecap="round"/>
<path d="M70.3604 56.6688V61.4845" stroke="#ABD9FF" stroke-width="0.255478" stroke-linecap="round"/>
<path d="M70.1104 57.721L70.9453 57.4428" stroke="#ABD9FF" stroke-width="0.255478" stroke-linecap="round"/>
<path d="M70.1114 57.721L68.998 57.4427" stroke="#ABD9FF" stroke-width="0.255478" stroke-linecap="round"/>
<path d="M70.1104 60.5042L70.9453 61.0608" stroke="#ABD9FF" stroke-width="0.255478" stroke-linecap="round"/>
<path d="M70.1114 60.5043L68.998 61.061" stroke="#ABD9FF" stroke-width="0.255478" stroke-linecap="round"/>
<path d="M72.4346 57.8929L68.264 60.3008" stroke="#ABD9FF" stroke-width="0.255478" stroke-linecap="round"/>
<path d="M71.4104 58.4732L72.5665 58.7633" stroke="#ABD9FF" stroke-width="0.255478" stroke-linecap="round"/>
<path d="M71.4103 58.4732L71.7236 57.3038" stroke="#ABD9FF" stroke-width="0.255478" stroke-linecap="round"/>
<path d="M69.1855 59.7573L68.8588 60.9035" stroke="#ABD9FF" stroke-width="0.255478" stroke-linecap="round"/>
<path d="M69.1859 59.7573L68.0164 59.4439" stroke="#ABD9FF" stroke-width="0.255478" stroke-linecap="round"/>
<path d="M72.4121 60.3008L68.2415 57.8929" stroke="#ABD9FF" stroke-width="0.255478" stroke-linecap="round"/>
<path d="M71.3978 59.7038L71.7245 60.8501" stroke="#ABD9FF" stroke-width="0.255478" stroke-linecap="round"/>
<path d="M71.3974 59.7038L72.5669 59.3904" stroke="#ABD9FF" stroke-width="0.255478" stroke-linecap="round"/>
<path d="M69.1733 58.4199L68.0173 58.71" stroke="#ABD9FF" stroke-width="0.255478" stroke-linecap="round"/>
<path d="M69.1735 58.4198L68.8602 57.2504" stroke="#ABD9FF" stroke-width="0.255478" stroke-linecap="round"/>
<path d="M30.8159 67.8022V72.0444" stroke="#ABD9FF" stroke-width="0.255478" stroke-linecap="round"/>
<path d="M30.5894 68.8543L31.4243 68.576" stroke="#ABD9FF" stroke-width="0.255478" stroke-linecap="round"/>
<path d="M30.5888 68.8543L29.7539 68.576" stroke="#ABD9FF" stroke-width="0.255478" stroke-linecap="round"/>
<path d="M30.5894 71.0808L31.4243 71.6375" stroke="#ABD9FF" stroke-width="0.255478" stroke-linecap="round"/>
<path d="M30.5888 71.0808L29.7539 71.6375" stroke="#ABD9FF" stroke-width="0.255478" stroke-linecap="round"/>
<path d="M32.6421 68.8785L28.9682 70.9997" stroke="#ABD9FF" stroke-width="0.255478" stroke-linecap="round"/>
<path d="M31.7399 69.3899L32.7584 69.6456" stroke="#ABD9FF" stroke-width="0.255478" stroke-linecap="round"/>
<path d="M31.7401 69.3898L32.0161 68.3596" stroke="#ABD9FF" stroke-width="0.255478" stroke-linecap="round"/>
<path d="M29.7798 70.5209L29.492 71.5308" stroke="#ABD9FF" stroke-width="0.255478" stroke-linecap="round"/>
<path d="M29.7799 70.5209L28.7497 70.2449" stroke="#ABD9FF" stroke-width="0.255478" stroke-linecap="round"/>
<path d="M32.6216 71.0012L28.9477 68.88" stroke="#ABD9FF" stroke-width="0.255478" stroke-linecap="round"/>
<path d="M31.7277 70.4753L32.0155 71.4851" stroke="#ABD9FF" stroke-width="0.255478" stroke-linecap="round"/>
<path d="M31.7281 70.4751L32.7583 70.199" stroke="#ABD9FF" stroke-width="0.255478" stroke-linecap="round"/>
<path d="M29.769 69.3441L28.7506 69.5998" stroke="#ABD9FF" stroke-width="0.255478" stroke-linecap="round"/>
<path d="M29.7689 69.3442L29.4929 68.314" stroke="#ABD9FF" stroke-width="0.255478" stroke-linecap="round"/>
<path d="M14.8071 49.9884V53.4292" stroke="#ABD9FF" stroke-width="0.255478" stroke-linecap="round"/>
<path d="M14.7241 50.7625L15.2808 50.4843" stroke="#ABD9FF" stroke-width="0.255478" stroke-linecap="round"/>
<path d="M14.7241 50.7625L13.8892 50.4843" stroke="#ABD9FF" stroke-width="0.255478" stroke-linecap="round"/>
<path d="M14.7241 52.7107L15.2808 52.9889" stroke="#ABD9FF" stroke-width="0.255478" stroke-linecap="round"/>
<path d="M14.7241 52.7108L13.8892 52.989" stroke="#ABD9FF" stroke-width="0.255478" stroke-linecap="round"/>
<path d="M16.2891 50.8632L13.3093 52.5836" stroke="#ABD9FF" stroke-width="0.255478" stroke-linecap="round"/>
<path d="M15.5572 51.2779L16.3831 51.4852" stroke="#ABD9FF" stroke-width="0.255478" stroke-linecap="round"/>
<path d="M15.5574 51.2778L15.7812 50.4423" stroke="#ABD9FF" stroke-width="0.255478" stroke-linecap="round"/>
<path d="M13.9678 52.1954L13.7343 53.0143" stroke="#ABD9FF" stroke-width="0.255478" stroke-linecap="round"/>
<path d="M13.9679 52.1953L13.1324 51.9715" stroke="#ABD9FF" stroke-width="0.255478" stroke-linecap="round"/>
<path d="M16.2749 52.5832L13.2951 50.8628" stroke="#ABD9FF" stroke-width="0.255478" stroke-linecap="round"/>
<path d="M15.5494 52.1564L15.7829 52.9753" stroke="#ABD9FF" stroke-width="0.255478" stroke-linecap="round"/>
<path d="M15.5488 52.1565L16.3843 51.9327" stroke="#ABD9FF" stroke-width="0.255478" stroke-linecap="round"/>
<path d="M13.9604 51.2391L13.1346 51.4464" stroke="#ABD9FF" stroke-width="0.255478" stroke-linecap="round"/>
<path d="M13.9608 51.2391L13.7369 50.4036" stroke="#ABD9FF" stroke-width="0.255478" stroke-linecap="round"/>
<defs>
<filter id="filter0_d_213_2226" x="17.2146" y="11.3585" width="58.6434" height="61.4231" filterUnits="userSpaceOnUse" color-interpolation-filters="sRGB">
<feFlood flood-opacity="0" result="BackgroundImageFix"/>
<feColorMatrix in="SourceAlpha" type="matrix" values="0 0 0 0 0 0 0 0 0 0 0 0 0 0 0 0 0 0 127 0" result="hardAlpha"/>
<feOffset dx="2.09836" dy="1.04918"/>
<feGaussianBlur stdDeviation="2.09836"/>
<feColorMatrix type="matrix" values="0 0 0 0 0.718056 0 0 0 0 0.806834 0 0 0 0 0.979167 0 0 0 0.7 0"/>
<feBlend mode="normal" in2="BackgroundImageFix" result="effect1_dropShadow_213_2226"/>
<feBlend mode="normal" in="SourceGraphic" in2="effect1_dropShadow_213_2226" result="shape"/>
</filter>
</defs>
</svg>
