<svg width="90" height="80" viewBox="0 0 90 80" fill="none" xmlns="http://www.w3.org/2000/svg">
<g filter="url(#filter0_d_213_1933)">
<path d="M45.1636 15.8251V66.2161" stroke="#98D0FF" stroke-width="2.63819" stroke-linecap="round"/>
<path d="M45.0635 28.143L53.7419 19.1845" stroke="#98D0FF" stroke-width="2.63819" stroke-linecap="round"/>
<path d="M45.0635 28.143L36.105 19.1846" stroke="#98D0FF" stroke-width="2.63819" stroke-linecap="round"/>
<path d="M45.0635 55.0184L53.7419 63.9768" stroke="#98D0FF" stroke-width="2.63819" stroke-linecap="round"/>
<path d="M45.0635 55.0183L36.105 63.9768" stroke="#98D0FF" stroke-width="2.63819" stroke-linecap="round"/>
<path d="M66.8633 28.631L23.2231 53.8265" stroke="#98D0FF" stroke-width="2.63819" stroke-linecap="round"/>
<path d="M56.146 34.7031L68.2435 37.7395" stroke="#98D0FF" stroke-width="2.63819" stroke-linecap="round"/>
<path d="M56.1453 34.703L59.4243 22.4655" stroke="#98D0FF" stroke-width="2.63819" stroke-linecap="round"/>
<path d="M32.8711 48.1404L29.452 60.1354" stroke="#98D0FF" stroke-width="2.63819" stroke-linecap="round"/>
<path d="M32.8699 48.1404L20.6323 44.8614" stroke="#98D0FF" stroke-width="2.63819" stroke-linecap="round"/>
<path d="M66.6226 53.8268L22.9824 28.6313" stroke="#98D0FF" stroke-width="2.63819" stroke-linecap="round"/>
<path d="M56.0049 47.5807L59.424 59.5756" stroke="#98D0FF" stroke-width="2.63819" stroke-linecap="round"/>
<path d="M56.0051 47.5807L68.2427 44.3017" stroke="#98D0FF" stroke-width="2.63819" stroke-linecap="round"/>
<path d="M32.7305 34.1433L20.633 37.1798" stroke="#98D0FF" stroke-width="2.63819" stroke-linecap="round"/>
<path d="M32.7307 34.1432L29.4517 21.9057" stroke="#98D0FF" stroke-width="2.63819" stroke-linecap="round"/>
</g>
<path d="M26.7666 7.00006V10.4219" stroke="#98D0FF" stroke-width="0.255477" stroke-linecap="round"/>
<path d="M26.6924 7.83479L27.2491 7.55658" stroke="#98D0FF" stroke-width="0.255477" stroke-linecap="round"/>
<path d="M26.6923 7.83479L25.8574 7.55658" stroke="#98D0FF" stroke-width="0.255477" stroke-linecap="round"/>
<path d="M26.6924 9.78339L27.2491 10.0616" stroke="#98D0FF" stroke-width="0.255477" stroke-linecap="round"/>
<path d="M26.6923 9.78339L25.8574 10.0616" stroke="#98D0FF" stroke-width="0.255477" stroke-linecap="round"/>
<path d="M28.2388 7.86975L25.2753 9.58068" stroke="#98D0FF" stroke-width="0.255477" stroke-linecap="round"/>
<path d="M27.5108 8.28199L28.3323 8.48827" stroke="#98D0FF" stroke-width="0.255477" stroke-linecap="round"/>
<path d="M27.5112 8.28205L27.7339 7.45111" stroke="#98D0FF" stroke-width="0.255477" stroke-linecap="round"/>
<path d="M25.9312 9.19476L25.699 10.0093" stroke="#98D0FF" stroke-width="0.255477" stroke-linecap="round"/>
<path d="M25.9311 9.19482L25.1002 8.97217" stroke="#98D0FF" stroke-width="0.255477" stroke-linecap="round"/>
<path d="M28.2222 9.58075L25.2587 7.86982" stroke="#98D0FF" stroke-width="0.255477" stroke-linecap="round"/>
<path d="M27.5025 9.15667L27.7346 9.97124" stroke="#98D0FF" stroke-width="0.255477" stroke-linecap="round"/>
<path d="M27.5021 9.15673L28.333 8.93408" stroke="#98D0FF" stroke-width="0.255477" stroke-linecap="round"/>
<path d="M25.9214 8.24402L25.0999 8.4503" stroke="#98D0FF" stroke-width="0.255477" stroke-linecap="round"/>
<path d="M25.9214 8.24414L25.6988 7.4132" stroke="#98D0FF" stroke-width="0.255477" stroke-linecap="round"/>
<path d="M73.9741 13.5276V19.3933" stroke="#98D0FF" stroke-width="0.255477" stroke-linecap="round"/>
<path d="M73.7295 14.858L74.8429 14.5798" stroke="#98D0FF" stroke-width="0.255477" stroke-linecap="round"/>
<path d="M73.73 14.858L72.3384 14.5798" stroke="#98D0FF" stroke-width="0.255477" stroke-linecap="round"/>
<path d="M73.7295 18.1984L74.8429 18.755" stroke="#98D0FF" stroke-width="0.255477" stroke-linecap="round"/>
<path d="M73.73 18.1982L72.3384 18.7549" stroke="#98D0FF" stroke-width="0.255477" stroke-linecap="round"/>
<path d="M76.5015 15.0181L71.4216 17.9509" stroke="#98D0FF" stroke-width="0.255477" stroke-linecap="round"/>
<path d="M75.2536 15.7251L76.6618 16.0785" stroke="#98D0FF" stroke-width="0.255477" stroke-linecap="round"/>
<path d="M75.2535 15.725L75.6353 14.3004" stroke="#98D0FF" stroke-width="0.255477" stroke-linecap="round"/>
<path d="M72.5439 17.2889L72.1459 18.6852" stroke="#98D0FF" stroke-width="0.255477" stroke-linecap="round"/>
<path d="M72.5444 17.2889L71.1198 16.9072" stroke="#98D0FF" stroke-width="0.255477" stroke-linecap="round"/>
<path d="M76.4727 17.9514L71.3927 15.0185" stroke="#98D0FF" stroke-width="0.255477" stroke-linecap="round"/>
<path d="M75.236 17.224L75.6341 18.6202" stroke="#98D0FF" stroke-width="0.255477" stroke-linecap="round"/>
<path d="M75.2366 17.2241L76.6611 16.8424" stroke="#98D0FF" stroke-width="0.255477" stroke-linecap="round"/>
<path d="M72.5278 15.66L71.1196 16.0134" stroke="#98D0FF" stroke-width="0.255477" stroke-linecap="round"/>
<path d="M72.5279 15.6602L72.1462 14.2356" stroke="#98D0FF" stroke-width="0.255477" stroke-linecap="round"/>
<path d="M70.3608 56.6685V61.4842" stroke="#98D0FF" stroke-width="0.255477" stroke-linecap="round"/>
<path d="M70.1108 57.7207L70.9457 57.4425" stroke="#98D0FF" stroke-width="0.255477" stroke-linecap="round"/>
<path d="M70.1119 57.7206L68.9985 57.4424" stroke="#98D0FF" stroke-width="0.255477" stroke-linecap="round"/>
<path d="M70.1108 60.5038L70.9457 61.0605" stroke="#98D0FF" stroke-width="0.255477" stroke-linecap="round"/>
<path d="M70.1119 60.5039L68.9985 61.0606" stroke="#98D0FF" stroke-width="0.255477" stroke-linecap="round"/>
<path d="M72.4346 57.8926L68.264 60.3004" stroke="#98D0FF" stroke-width="0.255477" stroke-linecap="round"/>
<path d="M71.4104 58.4729L72.5665 58.763" stroke="#98D0FF" stroke-width="0.255477" stroke-linecap="round"/>
<path d="M71.4103 58.4729L71.7236 57.3035" stroke="#98D0FF" stroke-width="0.255477" stroke-linecap="round"/>
<path d="M69.1855 59.7569L68.8588 60.9031" stroke="#98D0FF" stroke-width="0.255477" stroke-linecap="round"/>
<path d="M69.1859 59.7569L68.0164 59.4436" stroke="#98D0FF" stroke-width="0.255477" stroke-linecap="round"/>
<path d="M72.4121 60.3004L68.2415 57.8925" stroke="#98D0FF" stroke-width="0.255477" stroke-linecap="round"/>
<path d="M71.3978 59.7034L71.7245 60.8496" stroke="#98D0FF" stroke-width="0.255477" stroke-linecap="round"/>
<path d="M71.3979 59.7034L72.5674 59.39" stroke="#98D0FF" stroke-width="0.255477" stroke-linecap="round"/>
<path d="M69.1733 58.4195L68.0173 58.7096" stroke="#98D0FF" stroke-width="0.255477" stroke-linecap="round"/>
<path d="M69.1735 58.4194L68.8602 57.2499" stroke="#98D0FF" stroke-width="0.255477" stroke-linecap="round"/>
<path d="M30.8154 67.8017V72.0439" stroke="#98D0FF" stroke-width="0.255477" stroke-linecap="round"/>
<path d="M30.5894 68.8538L31.4243 68.5756" stroke="#98D0FF" stroke-width="0.255477" stroke-linecap="round"/>
<path d="M30.5888 68.8538L29.7539 68.5756" stroke="#98D0FF" stroke-width="0.255477" stroke-linecap="round"/>
<path d="M30.5894 71.0803L31.4243 71.637" stroke="#98D0FF" stroke-width="0.255477" stroke-linecap="round"/>
<path d="M30.5888 71.0803L29.7539 71.637" stroke="#98D0FF" stroke-width="0.255477" stroke-linecap="round"/>
<path d="M32.6426 68.8777L28.9687 70.9988" stroke="#98D0FF" stroke-width="0.255477" stroke-linecap="round"/>
<path d="M31.7404 69.3891L32.7589 69.6448" stroke="#98D0FF" stroke-width="0.255477" stroke-linecap="round"/>
<path d="M31.7406 69.389L32.0166 68.3588" stroke="#98D0FF" stroke-width="0.255477" stroke-linecap="round"/>
<path d="M29.7808 70.5201L29.493 71.53" stroke="#98D0FF" stroke-width="0.255477" stroke-linecap="round"/>
<path d="M29.7804 70.5201L28.7502 70.2441" stroke="#98D0FF" stroke-width="0.255477" stroke-linecap="round"/>
<path d="M32.6216 71.0007L28.9477 68.8796" stroke="#98D0FF" stroke-width="0.255477" stroke-linecap="round"/>
<path d="M31.7272 70.4748L32.015 71.4847" stroke="#98D0FF" stroke-width="0.255477" stroke-linecap="round"/>
<path d="M31.7271 70.4747L32.7573 70.1987" stroke="#98D0FF" stroke-width="0.255477" stroke-linecap="round"/>
<path d="M29.769 69.3437L28.7506 69.5994" stroke="#98D0FF" stroke-width="0.255477" stroke-linecap="round"/>
<path d="M29.7689 69.3437L29.4929 68.3135" stroke="#98D0FF" stroke-width="0.255477" stroke-linecap="round"/>
<path d="M14.8076 49.9881V53.4289" stroke="#98D0FF" stroke-width="0.255477" stroke-linecap="round"/>
<path d="M14.7246 50.7621L15.2813 50.4839" stroke="#98D0FF" stroke-width="0.255477" stroke-linecap="round"/>
<path d="M14.7246 50.7621L13.8896 50.4839" stroke="#98D0FF" stroke-width="0.255477" stroke-linecap="round"/>
<path d="M14.7246 52.7104L15.2813 52.9886" stroke="#98D0FF" stroke-width="0.255477" stroke-linecap="round"/>
<path d="M14.7246 52.7104L13.8896 52.9886" stroke="#98D0FF" stroke-width="0.255477" stroke-linecap="round"/>
<path d="M16.2891 50.8629L13.3093 52.5832" stroke="#98D0FF" stroke-width="0.255477" stroke-linecap="round"/>
<path d="M15.5572 51.2775L16.3831 51.4848" stroke="#98D0FF" stroke-width="0.255477" stroke-linecap="round"/>
<path d="M15.5574 51.2774L15.7812 50.442" stroke="#98D0FF" stroke-width="0.255477" stroke-linecap="round"/>
<path d="M13.9678 52.195L13.7343 53.0139" stroke="#98D0FF" stroke-width="0.255477" stroke-linecap="round"/>
<path d="M13.9679 52.195L13.1324 51.9711" stroke="#98D0FF" stroke-width="0.255477" stroke-linecap="round"/>
<path d="M16.2749 52.5828L13.2951 50.8624" stroke="#98D0FF" stroke-width="0.255477" stroke-linecap="round"/>
<path d="M15.5494 52.1561L15.7829 52.975" stroke="#98D0FF" stroke-width="0.255477" stroke-linecap="round"/>
<path d="M15.5488 52.1562L16.3843 51.9324" stroke="#98D0FF" stroke-width="0.255477" stroke-linecap="round"/>
<path d="M13.9604 51.2388L13.1345 51.4461" stroke="#98D0FF" stroke-width="0.255477" stroke-linecap="round"/>
<path d="M13.9608 51.2388L13.7369 50.4033" stroke="#98D0FF" stroke-width="0.255477" stroke-linecap="round"/>
<defs>
<filter id="filter0_d_213_1933" x="17.2146" y="11.3585" width="58.6434" height="61.4226" filterUnits="userSpaceOnUse" color-interpolation-filters="sRGB">
<feFlood flood-opacity="0" result="BackgroundImageFix"/>
<feColorMatrix in="SourceAlpha" type="matrix" values="0 0 0 0 0 0 0 0 0 0 0 0 0 0 0 0 0 0 127 0" result="hardAlpha"/>
<feOffset dx="2.09835" dy="1.04918"/>
<feGaussianBlur stdDeviation="2.09835"/>
<feColorMatrix type="matrix" values="0 0 0 0 0.619792 0 0 0 0 0.74623 0 0 0 0 0.991667 0 0 0 0.4 0"/>
<feBlend mode="normal" in2="BackgroundImageFix" result="effect1_dropShadow_213_1933"/>
<feBlend mode="normal" in="SourceGraphic" in2="effect1_dropShadow_213_1933" result="shape"/>
</filter>
</defs>
</svg>
